<svg xmlns="http://www.w3.org/2000/svg" viewBox="0 0 208.06 208.06"><defs><style>.cls-1{fill:#231f20;}.cls-2{fill:#1b75bc;}.cls-3{fill:#fff;}</style></defs><title>Fichier 2</title><g id="Calque_2" data-name="Calque 2"><g id="Calque_1-2" data-name="Calque 1"><circle class="cls-1" cx="104.03" cy="104.03" r="104.03"/><circle class="cls-2" cx="104.03" cy="104.03" r="88.62"/><path class="cls-1" d="M47.91,71.77h60.25a0,0,0,0,1,0,0v64.52a0,0,0,0,1,0,0H47.91A11.94,11.94,0,0,1,36,124.35V83.7A11.94,11.94,0,0,1,47.91,71.77Z"/><path class="cls-1" d="M97.75,49.89V160.17c0,7,7.36,11,12.62,6.89l70.86-55.14a8.72,8.72,0,0,0,0-13.78L110.37,43C105.11,38.91,97.75,42.93,97.75,49.89Z"/><path class="cls-3" d="M163.64,101.19l-46-33.41a3.5,3.5,0,0,0-5.56,2.84V90.13H54.51A3.51,3.51,0,0,0,51,93.63v21.1a3.51,3.51,0,0,0,3.51,3.51h57.54v19.2a3.5,3.5,0,0,0,5.56,2.84l46-33.41A3.51,3.51,0,0,0,163.64,101.19Z"/></g></g></svg>