<?xml version="1.0" encoding="utf-8"?>
<!-- Generator: Adobe Illustrator 26.3.1, SVG Export Plug-In . SVG Version: 6.00 Build 0)  -->
<svg version="1.1" id="Calque_1" xmlns="http://www.w3.org/2000/svg" xmlns:xlink="http://www.w3.org/1999/xlink" x="0px" y="0px"
	 viewBox="0 0 256 256" style="enable-background:new 0 0 256 256;" xml:space="preserve">
<style type="text/css">
	.st0{stroke:#CCCCCC;stroke-width:2;stroke-miterlimit:10;}
</style>
<g transform="translate(1.4065934065934016 1.4065934065934016) scale(2.81 2.81)">
	<path class="st0" d="M88.6,54.4L88.6,54.4c-8.3-3.5-8.3-15.3,0-18.7l0,0c1.2-0.5,1.7-1.8,1.3-3l-4.4-10.5c-0.5-1.2-1.8-1.7-3-1.3
		l0,0c-8.3,3.5-16.7-4.9-13.2-13.2l0,0c0.5-1.2-0.1-2.5-1.3-3L57.4,0.2c-1.2-0.5-2.5,0.1-3,1.3c-3.5,8.3-15.3,8.3-18.7,0
		c-0.5-1.2-1.8-1.7-3-1.3L22.1,4.5c-1.2,0.5-1.7,1.8-1.3,3c3.5,8.3-4.9,16.7-13.2,13.2c-1.2-0.5-2.5,0.1-3,1.3L0.2,32.6
		c-0.5,1.2,0.1,2.5,1.3,3l0,0c8.3,3.5,8.3,15.3,0,18.7l0,0c-1.2,0.5-1.7,1.8-1.3,3l4.4,10.5c0.5,1.2,1.8,1.7,3,1.3l0,0
		c8.3-3.5,16.7,4.9,13.2,13.2l0,0c-0.5,1.2,0.1,2.5,1.3,3l10.5,4.4c1.2,0.5,2.5-0.1,3-1.3l0,0c3.5-8.3,15.3-8.3,18.7,0l0,0
		c0.5,1.2,1.8,1.7,3,1.3l10.5-4.4c1.2-0.5,1.7-1.8,1.3-3l0,0c-3.5-8.3,4.9-16.7,13.2-13.2c1.2,0.5,2.5-0.1,3-1.3l4.4-10.5
		C90.3,56.2,89.8,54.8,88.6,54.4z M45,64.1c-10.5,0-19.1-8.5-19.1-19.1S34.5,25.9,45,25.9S64.1,34.5,64.1,45S55.5,64.1,45,64.1z"/>
</g>
</svg>
